<?xml version="1.0" standalone="no"?>
<svg viewBox="0 0 200 200" xmlns="http://www.w3.org/2000/svg">
  <path fill="#8A3FFC" d="M33.3,-54.3C43,-45.7,50.4,-36,60.1,-24.6C69.7,-13.1,81.7,0.2,79.1,10.7C76.4,21.1,59.3,28.8,46.2,35C33,41.2,23.9,45.8,12.7,54.1C1.5,62.4,-11.9,74.3,-24.7,74.8C-37.5,75.3,-49.7,64.5,-56,51.6C-62.2,38.8,-62.6,23.9,-61.1,10.9C-59.7,-2,-56.3,-13.1,-53.5,-26.5C-50.6,-39.8,-48.1,-55.4,-39.3,-64.4C-30.4,-73.5,-15.2,-75.9,-1.7,-73.2C11.9,-70.6,23.7,-63,33.3,-54.3Z" transform="translate(100 100)" />
</svg>
